<?xml version="1.0" encoding="UTF-8"?>
<svg xmlns="http://www.w3.org/2000/svg" xmlns:xlink="http://www.w3.org/1999/xlink" width="116.88pt" height="31.5pt" viewBox="0 0 116.88 31.5" version="1.2">
<g id="surface1">
<path style=" stroke:none;fill-rule:nonzero;fill:rgb(89.7995%,3.529358%,7.839966%);fill-opacity:1;" d="M 8.050781 1.855469 L 13.082031 1.855469 C 14.675781 1.855469 15.863281 2.28125 16.644531 3.132812 C 17.425781 3.976562 17.820312 5.214844 17.820312 6.855469 L 17.820312 17.074219 C 17.820312 18.71875 17.425781 19.960938 16.644531 20.808594 C 15.863281 21.652344 14.675781 22.074219 13.082031 22.074219 L 8.050781 22.074219 Z M 11.230469 4.746094 L 11.230469 19.183594 L 13.023438 19.183594 C 13.519531 19.183594 13.910156 19.042969 14.199219 18.757812 C 14.492188 18.464844 14.636719 17.953125 14.636719 17.222656 L 14.636719 6.707031 C 14.636719 5.980469 14.492188 5.472656 14.199219 5.183594 C 13.910156 4.890625 13.519531 4.746094 13.023438 4.746094 Z M 11.230469 4.746094 "/>
<path style=" stroke:none;fill-rule:nonzero;fill:rgb(89.7995%,3.529358%,7.839966%);fill-opacity:1;" d="M 30.121094 22.074219 L 26.917969 22.074219 L 26.363281 18.40625 L 22.460938 18.40625 L 21.917969 22.074219 L 18.996094 22.074219 L 22.234375 1.855469 L 26.882812 1.855469 Z M 22.867188 15.664062 L 25.933594 15.664062 L 24.402344 5.433594 Z M 22.867188 15.664062 "/>
<path style=" stroke:none;fill-rule:nonzero;fill:rgb(89.7995%,3.529358%,7.839966%);fill-opacity:1;" d="M 38.230469 22.074219 C 38.191406 21.9375 38.152344 21.8125 38.117188 21.699219 C 38.078125 21.582031 38.042969 21.4375 38.015625 21.261719 C 37.984375 21.089844 37.964844 20.871094 37.957031 20.605469 C 37.949219 20.335938 37.945312 19.996094 37.945312 19.589844 L 37.945312 16.410156 C 37.945312 15.472656 37.78125 14.808594 37.449219 14.425781 C 37.125 14.035156 36.597656 13.835938 35.859375 13.835938 L 34.765625 13.835938 L 34.765625 22.074219 L 31.585938 22.074219 L 31.585938 1.855469 L 36.378906 1.855469 C 38.039062 1.855469 39.238281 2.246094 39.976562 3.019531 C 40.722656 3.785156 41.09375 4.949219 41.09375 6.503906 L 41.09375 8.09375 C 41.09375 10.171875 40.398438 11.535156 39.007812 12.191406 C 39.820312 12.523438 40.371094 13.058594 40.664062 13.804688 C 40.964844 14.542969 41.117188 15.441406 41.117188 16.5 L 41.117188 19.613281 C 41.117188 20.117188 41.132812 20.558594 41.171875 20.933594 C 41.210938 21.3125 41.308594 21.691406 41.46875 22.074219 Z M 34.765625 4.746094 L 34.765625 10.949219 L 36.007812 10.949219 C 36.597656 10.949219 37.066406 10.796875 37.40625 10.488281 C 37.742188 10.179688 37.914062 9.625 37.914062 8.816406 L 37.914062 6.820312 C 37.914062 6.09375 37.78125 5.566406 37.519531 5.242188 C 37.261719 4.910156 36.855469 4.746094 36.300781 4.746094 Z M 34.765625 4.746094 "/>
<path style=" stroke:none;fill-rule:nonzero;fill:rgb(89.7995%,3.529358%,7.839966%);fill-opacity:1;" d="M 47.355469 14.019531 L 46.375 15.867188 L 46.375 22.074219 L 43.195312 22.074219 L 43.195312 1.855469 L 46.375 1.855469 L 46.375 10.667969 L 50.539062 1.855469 L 53.707031 1.855469 L 49.296875 10.871094 L 53.707031 22.074219 L 50.449219 22.074219 Z M 47.355469 14.019531 "/>
<path style=" stroke:none;fill-rule:nonzero;fill:rgb(89.7995%,3.529358%,7.839966%);fill-opacity:1;" d="M 59.625 1.855469 L 64.65625 1.855469 C 66.25 1.855469 67.4375 2.28125 68.222656 3.132812 C 69.003906 3.976562 69.394531 5.214844 69.394531 6.855469 L 69.394531 17.074219 C 69.394531 18.71875 69.003906 19.960938 68.222656 20.808594 C 67.4375 21.652344 66.25 22.074219 64.65625 22.074219 L 59.625 22.074219 Z M 62.804688 4.746094 L 62.804688 19.183594 L 64.601562 19.183594 C 65.097656 19.183594 65.484375 19.042969 65.773438 18.757812 C 66.066406 18.464844 66.214844 17.953125 66.214844 17.222656 L 66.214844 6.707031 C 66.214844 5.980469 66.066406 5.472656 65.773438 5.183594 C 65.484375 4.890625 65.097656 4.746094 64.601562 4.746094 Z M 62.804688 4.746094 "/>
<path style=" stroke:none;fill-rule:nonzero;fill:rgb(89.7995%,3.529358%,7.839966%);fill-opacity:1;" d="M 78.050781 22.074219 C 78.011719 21.9375 77.976562 21.8125 77.9375 21.699219 C 77.898438 21.582031 77.867188 21.4375 77.835938 21.261719 C 77.804688 21.089844 77.785156 20.871094 77.78125 20.605469 C 77.773438 20.335938 77.769531 19.996094 77.769531 19.589844 L 77.769531 16.410156 C 77.769531 15.472656 77.601562 14.808594 77.273438 14.425781 C 76.949219 14.035156 76.417969 13.835938 75.683594 13.835938 L 74.589844 13.835938 L 74.589844 22.074219 L 71.40625 22.074219 L 71.40625 1.855469 L 76.203125 1.855469 C 77.863281 1.855469 79.0625 2.246094 79.800781 3.019531 C 80.542969 3.785156 80.917969 4.949219 80.917969 6.503906 L 80.917969 8.09375 C 80.917969 10.171875 80.21875 11.535156 78.828125 12.191406 C 79.640625 12.523438 80.195312 13.058594 80.488281 13.804688 C 80.789062 14.542969 80.941406 15.441406 80.941406 16.5 L 80.941406 19.613281 C 80.941406 20.117188 80.957031 20.558594 80.996094 20.933594 C 81.03125 21.3125 81.132812 21.691406 81.289062 22.074219 Z M 74.589844 4.746094 L 74.589844 10.949219 L 75.828125 10.949219 C 76.421875 10.949219 76.890625 10.796875 77.226562 10.488281 C 77.566406 10.179688 77.734375 9.625 77.734375 8.816406 L 77.734375 6.820312 C 77.734375 6.09375 77.601562 5.566406 77.339844 5.242188 C 77.085938 4.910156 76.679688 4.746094 76.121094 4.746094 Z M 74.589844 4.746094 "/>
<path style=" stroke:none;fill-rule:nonzero;fill:rgb(89.7995%,3.529358%,7.839966%);fill-opacity:1;" d="M 83.015625 1.855469 L 86.195312 1.855469 L 86.195312 22.074219 L 83.015625 22.074219 Z M 83.015625 1.855469 "/>
<path style=" stroke:none;fill-rule:nonzero;fill:rgb(89.7995%,3.529358%,7.839966%);fill-opacity:1;" d="M 93.296875 18.351562 L 95.722656 1.855469 L 98.644531 1.855469 L 95.519531 22.074219 L 90.792969 22.074219 L 87.667969 1.855469 L 90.871094 1.855469 Z M 93.296875 18.351562 "/>
<path style=" stroke:none;fill-rule:nonzero;fill:rgb(89.7995%,3.529358%,7.839966%);fill-opacity:1;" d="M 103.292969 10.375 L 107.660156 10.375 L 107.660156 13.261719 L 103.292969 13.261719 L 103.292969 19.183594 L 108.773438 19.183594 L 108.773438 22.074219 L 100.109375 22.074219 L 100.109375 1.855469 L 108.773438 1.855469 L 108.773438 4.746094 L 103.292969 4.746094 Z M 103.292969 10.375 "/>
</g>
</svg>
